<mxfile host="65bd71144e">
    <diagram id="lpOHtHvmCX5zYNxdvWPf" name="Page-1">
        <mxGraphModel dx="1216" dy="922" grid="1" gridSize="10" guides="1" tooltips="1" connect="1" arrows="1" fold="1" page="1" pageScale="1" pageWidth="827" pageHeight="1169" math="0" shadow="0">
            <root>
                <mxCell id="0"/>
                <mxCell id="1" parent="0"/>
                <mxCell id="2" value="" style="edgeStyle=none;html=1;" edge="1" parent="1" source="3" target="5">
                    <mxGeometry relative="1" as="geometry"/>
                </mxCell>
                <mxCell id="3" value="Inicio" style="ellipse;whiteSpace=wrap;html=1;fillColor=#60a917;fontColor=#ffffff;strokeColor=#2D7600;" vertex="1" parent="1">
                    <mxGeometry x="1785" y="220" width="115" height="80" as="geometry"/>
                </mxCell>
                <mxCell id="4" value="" style="edgeStyle=none;html=1;" edge="1" parent="1" source="5" target="7">
                    <mxGeometry relative="1" as="geometry"/>
                </mxCell>
                <mxCell id="5" value="peso , altura" style="shape=parallelogram;perimeter=parallelogramPerimeter;whiteSpace=wrap;html=1;fixedSize=1;fillColor=#008a00;fontColor=#ffffff;strokeColor=#005700;" vertex="1" parent="1">
                    <mxGeometry x="1780" y="350" width="120" height="60" as="geometry"/>
                </mxCell>
                <mxCell id="6" value="" style="edgeStyle=none;html=1;" edge="1" parent="1" source="7" target="10">
                    <mxGeometry relative="1" as="geometry"/>
                </mxCell>
                <mxCell id="7" value="imc = kg/altura&lt;sup&gt;2&lt;/sup&gt;" style="whiteSpace=wrap;html=1;fillColor=#1ba1e2;fontColor=#ffffff;strokeColor=#006EAF;" vertex="1" parent="1">
                    <mxGeometry x="1780" y="480" width="120" height="60" as="geometry"/>
                </mxCell>
                <mxCell id="8" value="" style="edgeStyle=none;html=1;" edge="1" parent="1" source="10" target="11">
                    <mxGeometry relative="1" as="geometry">
                        <Array as="points">
                            <mxPoint x="2020" y="640"/>
                        </Array>
                    </mxGeometry>
                </mxCell>
                <mxCell id="9" value="" style="edgeStyle=none;html=1;" edge="1" parent="1" source="10" target="14">
                    <mxGeometry relative="1" as="geometry">
                        <Array as="points">
                            <mxPoint x="1680" y="640"/>
                        </Array>
                    </mxGeometry>
                </mxCell>
                <mxCell id="10" value="if imc &amp;lt; 16" style="rhombus;whiteSpace=wrap;html=1;fillColor=#f0a30a;fontColor=#000000;strokeColor=#BD7000;" vertex="1" parent="1">
                    <mxGeometry x="1785" y="590" width="109.37" height="100" as="geometry"/>
                </mxCell>
                <mxCell id="11" value="msj = (&quot;Criterio de ingreso en hospital)&quot;" style="shape=document;whiteSpace=wrap;html=1;boundedLbl=1;fillColor=#e51400;fontColor=#ffffff;strokeColor=#B20000;" vertex="1" parent="1">
                    <mxGeometry x="1960" y="720" width="120" height="80" as="geometry"/>
                </mxCell>
                <mxCell id="12" value="" style="edgeStyle=none;html=1;" edge="1" parent="1" source="14" target="15">
                    <mxGeometry relative="1" as="geometry">
                        <Array as="points">
                            <mxPoint x="1850" y="760"/>
                        </Array>
                    </mxGeometry>
                </mxCell>
                <mxCell id="13" style="edgeStyle=none;html=1;entryX=0.5;entryY=0;entryDx=0;entryDy=0;" edge="1" parent="1" source="14">
                    <mxGeometry relative="1" as="geometry">
                        <mxPoint x="1530" y="820" as="targetPoint"/>
                        <Array as="points">
                            <mxPoint x="1530" y="760"/>
                            <mxPoint x="1530" y="790"/>
                        </Array>
                    </mxGeometry>
                </mxCell>
                <mxCell id="14" value="if imc &amp;lt; 17" style="rhombus;whiteSpace=wrap;html=1;fillColor=#f0a30a;fontColor=#000000;strokeColor=#BD7000;" vertex="1" parent="1">
                    <mxGeometry x="1630" y="710" width="109.37" height="100" as="geometry"/>
                </mxCell>
                <mxCell id="15" value="msj = (&quot; Infrapeso&quot;)" style="shape=document;whiteSpace=wrap;html=1;boundedLbl=1;fillColor=#e51400;fontColor=#ffffff;strokeColor=#B20000;" vertex="1" parent="1">
                    <mxGeometry x="1795" y="850" width="110.01" height="70" as="geometry"/>
                </mxCell>
                <mxCell id="16" style="edgeStyle=none;html=1;fontColor=#FF0000;" edge="1" parent="1" source="18">
                    <mxGeometry relative="1" as="geometry">
                        <mxPoint x="1700" y="970" as="targetPoint"/>
                        <Array as="points">
                            <mxPoint x="1700" y="875"/>
                        </Array>
                    </mxGeometry>
                </mxCell>
                <mxCell id="17" style="edgeStyle=none;html=1;fontColor=#FF0000;" edge="1" parent="1" source="18">
                    <mxGeometry relative="1" as="geometry">
                        <mxPoint x="1360" y="940" as="targetPoint"/>
                        <Array as="points">
                            <mxPoint x="1360" y="875"/>
                        </Array>
                    </mxGeometry>
                </mxCell>
                <mxCell id="18" value="&lt;span style=&quot;font-weight: normal;&quot;&gt;if imc &amp;lt; 18&lt;/span&gt;" style="rhombus;whiteSpace=wrap;html=1;fontStyle=1;fillColor=#f0a30a;fontColor=#000000;strokeColor=#BD7000;" vertex="1" parent="1">
                    <mxGeometry x="1470" y="820" width="120" height="110" as="geometry"/>
                </mxCell>
                <mxCell id="19" value="&lt;span&gt;True&lt;/span&gt;" style="text;html=1;strokeColor=none;fillColor=none;align=center;verticalAlign=middle;whiteSpace=wrap;rounded=0;fontColor=#009900;fontStyle=0" vertex="1" parent="1">
                    <mxGeometry x="1930" y="600" width="60" height="30" as="geometry"/>
                </mxCell>
                <mxCell id="20" value="&lt;font color=&quot;#ff0000&quot;&gt;False&lt;/font&gt;" style="text;html=1;strokeColor=none;fillColor=none;align=center;verticalAlign=middle;whiteSpace=wrap;rounded=0;fontColor=#009900;" vertex="1" parent="1">
                    <mxGeometry x="1720" y="600" width="60" height="30" as="geometry"/>
                </mxCell>
                <mxCell id="21" value="&lt;span&gt;True&lt;/span&gt;" style="text;html=1;strokeColor=none;fillColor=none;align=center;verticalAlign=middle;whiteSpace=wrap;rounded=0;fontColor=#009900;fontStyle=0" vertex="1" parent="1">
                    <mxGeometry x="1770" y="720" width="60" height="30" as="geometry"/>
                </mxCell>
                <mxCell id="22" value="&lt;font color=&quot;#ff0000&quot;&gt;False&lt;/font&gt;" style="text;html=1;strokeColor=none;fillColor=none;align=center;verticalAlign=middle;whiteSpace=wrap;rounded=0;fontColor=#009900;" vertex="1" parent="1">
                    <mxGeometry x="1570" y="720" width="60" height="30" as="geometry"/>
                </mxCell>
                <mxCell id="23" value="&lt;span&gt;True&lt;/span&gt;" style="text;html=1;strokeColor=none;fillColor=none;align=center;verticalAlign=middle;whiteSpace=wrap;rounded=0;fontColor=#009900;fontStyle=0" vertex="1" parent="1">
                    <mxGeometry x="1610" y="840" width="60" height="30" as="geometry"/>
                </mxCell>
                <mxCell id="24" value="&lt;font color=&quot;#ff0000&quot;&gt;False&lt;/font&gt;" style="text;html=1;strokeColor=none;fillColor=none;align=center;verticalAlign=middle;whiteSpace=wrap;rounded=0;fontColor=#009900;" vertex="1" parent="1">
                    <mxGeometry x="1400" y="840" width="60" height="30" as="geometry"/>
                </mxCell>
                <mxCell id="25" value="msj = (&quot;Bajo peso&quot;)" style="shape=document;whiteSpace=wrap;html=1;boundedLbl=1;fillColor=#e51400;fontColor=#ffffff;strokeColor=#B20000;" vertex="1" parent="1">
                    <mxGeometry x="1650" y="970" width="110.01" height="70" as="geometry"/>
                </mxCell>
                <mxCell id="26" style="edgeStyle=none;html=1;fontColor=#FF0000;" edge="1" parent="1" source="28">
                    <mxGeometry relative="1" as="geometry">
                        <mxPoint x="1550" y="1070" as="targetPoint"/>
                        <Array as="points">
                            <mxPoint x="1550" y="995"/>
                        </Array>
                    </mxGeometry>
                </mxCell>
                <mxCell id="27" style="edgeStyle=none;html=1;fontColor=#FF0000;" edge="1" parent="1" source="28">
                    <mxGeometry relative="1" as="geometry">
                        <mxPoint x="1190" y="1080" as="targetPoint"/>
                        <Array as="points">
                            <mxPoint x="1190" y="995"/>
                        </Array>
                    </mxGeometry>
                </mxCell>
                <mxCell id="28" value="if imc &amp;lt; 25" style="rhombus;whiteSpace=wrap;html=1;fillColor=#f0a30a;fontColor=#000000;strokeColor=#BD7000;" vertex="1" parent="1">
                    <mxGeometry x="1300" y="940" width="120" height="110" as="geometry"/>
                </mxCell>
                <mxCell id="29" value="&lt;span&gt;True&lt;/span&gt;" style="text;html=1;strokeColor=none;fillColor=none;align=center;verticalAlign=middle;whiteSpace=wrap;rounded=0;fontColor=#009900;fontStyle=0" vertex="1" parent="1">
                    <mxGeometry x="1460" y="960" width="60" height="30" as="geometry"/>
                </mxCell>
                <mxCell id="30" value="&lt;font color=&quot;#ff0000&quot;&gt;False&lt;/font&gt;" style="text;html=1;strokeColor=none;fillColor=none;align=center;verticalAlign=middle;whiteSpace=wrap;rounded=0;fontColor=#009900;" vertex="1" parent="1">
                    <mxGeometry x="1220" y="960" width="60" height="30" as="geometry"/>
                </mxCell>
                <mxCell id="31" value="msj = (&quot;Peso saludable&quot;)" style="shape=document;whiteSpace=wrap;html=1;boundedLbl=1;fillColor=#e51400;fontColor=#ffffff;strokeColor=#B20000;" vertex="1" parent="1">
                    <mxGeometry x="1499.99" y="1070" width="110.01" height="70" as="geometry"/>
                </mxCell>
                <mxCell id="32" style="edgeStyle=none;html=1;fontColor=#FF0000;" edge="1" parent="1" source="34">
                    <mxGeometry relative="1" as="geometry">
                        <mxPoint x="1390" y="1190" as="targetPoint"/>
                        <Array as="points">
                            <mxPoint x="1390" y="1135"/>
                        </Array>
                    </mxGeometry>
                </mxCell>
                <mxCell id="33" style="edgeStyle=none;html=1;fontColor=#FF0000;" edge="1" parent="1" source="34">
                    <mxGeometry relative="1" as="geometry">
                        <mxPoint x="1020" y="1190" as="targetPoint"/>
                        <Array as="points">
                            <mxPoint x="1020" y="1135"/>
                        </Array>
                    </mxGeometry>
                </mxCell>
                <mxCell id="34" value="if imc &amp;lt; 30" style="rhombus;whiteSpace=wrap;html=1;fillColor=#f0a30a;fontColor=#000000;strokeColor=#BD7000;" vertex="1" parent="1">
                    <mxGeometry x="1130" y="1080" width="120" height="110" as="geometry"/>
                </mxCell>
                <mxCell id="35" value="&lt;span&gt;True&lt;/span&gt;" style="text;html=1;strokeColor=none;fillColor=none;align=center;verticalAlign=middle;whiteSpace=wrap;rounded=0;fontColor=#009900;fontStyle=0" vertex="1" parent="1">
                    <mxGeometry x="1310" y="1100" width="60" height="30" as="geometry"/>
                </mxCell>
                <mxCell id="36" value="&lt;font color=&quot;#ff0000&quot;&gt;False&lt;/font&gt;" style="text;html=1;strokeColor=none;fillColor=none;align=center;verticalAlign=middle;whiteSpace=wrap;rounded=0;fontColor=#009900;" vertex="1" parent="1">
                    <mxGeometry x="1050" y="1100" width="60" height="30" as="geometry"/>
                </mxCell>
                <mxCell id="37" value="msj = (&quot;Sobrepeso (obesidad de grado I)&quot;)" style="shape=document;whiteSpace=wrap;html=1;boundedLbl=1;fillColor=#e51400;fontColor=#ffffff;strokeColor=#B20000;" vertex="1" parent="1">
                    <mxGeometry x="1340" y="1190" width="110.01" height="70" as="geometry"/>
                </mxCell>
                <mxCell id="38" style="edgeStyle=none;html=1;fontColor=#FF0000;" edge="1" parent="1" source="40">
                    <mxGeometry relative="1" as="geometry">
                        <mxPoint x="1200" y="1300" as="targetPoint"/>
                        <Array as="points">
                            <mxPoint x="1200" y="1245"/>
                        </Array>
                    </mxGeometry>
                </mxCell>
                <mxCell id="39" style="edgeStyle=none;html=1;fontColor=#FF0000;entryX=0.5;entryY=0;entryDx=0;entryDy=0;" edge="1" parent="1" source="40" target="44">
                    <mxGeometry relative="1" as="geometry">
                        <mxPoint x="800" y="1320" as="targetPoint"/>
                        <Array as="points">
                            <mxPoint x="800" y="1245"/>
                        </Array>
                    </mxGeometry>
                </mxCell>
                <mxCell id="40" value="if imc &amp;lt; 35" style="rhombus;whiteSpace=wrap;html=1;fillColor=#f0a30a;fontColor=#000000;strokeColor=#BD7000;" vertex="1" parent="1">
                    <mxGeometry x="960" y="1190" width="120" height="110" as="geometry"/>
                </mxCell>
                <mxCell id="41" value="msj = (&quot;Sobrepreso crónico (obesidad de grado II)&quot;)" style="shape=document;whiteSpace=wrap;html=1;boundedLbl=1;fillColor=#e51400;fontColor=#ffffff;strokeColor=#B20000;" vertex="1" parent="1">
                    <mxGeometry x="1150" y="1300" width="110.01" height="70" as="geometry"/>
                </mxCell>
                <mxCell id="42" style="edgeStyle=none;html=1;fontColor=#FF0000;" edge="1" parent="1" source="44">
                    <mxGeometry relative="1" as="geometry">
                        <mxPoint x="990" y="1420" as="targetPoint"/>
                        <Array as="points">
                            <mxPoint x="990" y="1365"/>
                        </Array>
                    </mxGeometry>
                </mxCell>
                <mxCell id="43" style="edgeStyle=none;html=1;fontColor=#FF0000;" edge="1" parent="1" source="44">
                    <mxGeometry relative="1" as="geometry">
                        <mxPoint x="640" y="1420" as="targetPoint"/>
                        <Array as="points">
                            <mxPoint x="640" y="1365"/>
                        </Array>
                    </mxGeometry>
                </mxCell>
                <mxCell id="44" value="if imc &amp;lt; 40" style="rhombus;whiteSpace=wrap;html=1;fillColor=#f0a30a;fontColor=#000000;strokeColor=#BD7000;" vertex="1" parent="1">
                    <mxGeometry x="740" y="1310" width="120" height="110" as="geometry"/>
                </mxCell>
                <mxCell id="45" value="msj = (&quot;Obesidad premórbida (obesidad de grado III)&quot;)" style="shape=document;whiteSpace=wrap;html=1;boundedLbl=1;fillColor=#e51400;fontColor=#ffffff;strokeColor=#B20000;" vertex="1" parent="1">
                    <mxGeometry x="940" y="1420" width="115" height="80" as="geometry"/>
                </mxCell>
                <mxCell id="46" style="edgeStyle=none;html=1;fontColor=#FF0000;" edge="1" parent="1" source="48">
                    <mxGeometry relative="1" as="geometry">
                        <mxPoint x="830" y="1520" as="targetPoint"/>
                        <Array as="points">
                            <mxPoint x="830" y="1475"/>
                        </Array>
                    </mxGeometry>
                </mxCell>
                <mxCell id="47" style="edgeStyle=none;html=1;fontColor=#FF0000;" edge="1" parent="1" source="48">
                    <mxGeometry relative="1" as="geometry">
                        <mxPoint x="480" y="1520" as="targetPoint"/>
                        <Array as="points">
                            <mxPoint x="480" y="1475"/>
                        </Array>
                    </mxGeometry>
                </mxCell>
                <mxCell id="48" value="if imc &amp;gt; 40" style="rhombus;whiteSpace=wrap;html=1;fillColor=#f0a30a;fontColor=#000000;strokeColor=#BD7000;" vertex="1" parent="1">
                    <mxGeometry x="580" y="1420" width="120" height="110" as="geometry"/>
                </mxCell>
                <mxCell id="49" value="msj = (&quot;Obesidad mórbida (obesidad de grado IV)&quot;)" style="shape=document;whiteSpace=wrap;html=1;boundedLbl=1;fillColor=#e51400;fontColor=#ffffff;strokeColor=#B20000;" vertex="1" parent="1">
                    <mxGeometry x="780" y="1520" width="115" height="80" as="geometry"/>
                </mxCell>
                <mxCell id="50" value="" style="endArrow=none;html=1;fontColor=#FF0000;entryX=0.522;entryY=0.875;entryDx=0;entryDy=0;entryPerimeter=0;" edge="1" parent="1" target="49">
                    <mxGeometry width="50" height="50" relative="1" as="geometry">
                        <mxPoint x="840" y="1720" as="sourcePoint"/>
                        <mxPoint x="840" y="1670" as="targetPoint"/>
                    </mxGeometry>
                </mxCell>
                <mxCell id="51" value="" style="endArrow=none;html=1;fontColor=#FF0000;" edge="1" parent="1">
                    <mxGeometry width="50" height="50" relative="1" as="geometry">
                        <mxPoint x="997" y="1720" as="sourcePoint"/>
                        <mxPoint x="997" y="1500" as="targetPoint"/>
                    </mxGeometry>
                </mxCell>
                <mxCell id="52" value="" style="endArrow=none;html=1;fontColor=#FF0000;" edge="1" parent="1" target="41">
                    <mxGeometry width="50" height="50" relative="1" as="geometry">
                        <mxPoint x="1205" y="1720" as="sourcePoint"/>
                        <mxPoint x="1204.51" y="1420" as="targetPoint"/>
                    </mxGeometry>
                </mxCell>
                <mxCell id="53" value="" style="endArrow=none;html=1;fontColor=#FF0000;" edge="1" parent="1" target="37">
                    <mxGeometry width="50" height="50" relative="1" as="geometry">
                        <mxPoint x="1395" y="1720" as="sourcePoint"/>
                        <mxPoint x="1390" y="1440" as="targetPoint"/>
                    </mxGeometry>
                </mxCell>
                <mxCell id="54" value="" style="endArrow=none;html=1;fontColor=#FF0000;" edge="1" parent="1">
                    <mxGeometry width="50" height="50" relative="1" as="geometry">
                        <mxPoint x="1550" y="1720" as="sourcePoint"/>
                        <mxPoint x="1550" y="1140" as="targetPoint"/>
                    </mxGeometry>
                </mxCell>
                <mxCell id="55" value="" style="endArrow=none;html=1;fontColor=#FF0000;" edge="1" parent="1">
                    <mxGeometry width="50" height="50" relative="1" as="geometry">
                        <mxPoint x="1700" y="1720" as="sourcePoint"/>
                        <mxPoint x="1704.5" y="1045" as="targetPoint"/>
                    </mxGeometry>
                </mxCell>
                <mxCell id="56" value="" style="endArrow=none;html=1;fontColor=#FF0000;" edge="1" parent="1">
                    <mxGeometry width="50" height="50" relative="1" as="geometry">
                        <mxPoint x="1850" y="1720" as="sourcePoint"/>
                        <mxPoint x="1850" y="930" as="targetPoint"/>
                    </mxGeometry>
                </mxCell>
                <mxCell id="57" value="" style="endArrow=none;html=1;fontColor=#FF0000;" edge="1" parent="1">
                    <mxGeometry width="50" height="50" relative="1" as="geometry">
                        <mxPoint x="2020" y="1720" as="sourcePoint"/>
                        <mxPoint x="2020" y="810" as="targetPoint"/>
                    </mxGeometry>
                </mxCell>
                <mxCell id="58" value="&lt;span&gt;True&lt;/span&gt;" style="text;html=1;strokeColor=none;fillColor=none;align=center;verticalAlign=middle;whiteSpace=wrap;rounded=0;fontColor=#009900;fontStyle=0" vertex="1" parent="1">
                    <mxGeometry x="1110" y="1210" width="60" height="30" as="geometry"/>
                </mxCell>
                <mxCell id="59" value="&lt;font color=&quot;#ff0000&quot;&gt;False&lt;/font&gt;" style="text;html=1;strokeColor=none;fillColor=none;align=center;verticalAlign=middle;whiteSpace=wrap;rounded=0;fontColor=#009900;" vertex="1" parent="1">
                    <mxGeometry x="870" y="1210" width="60" height="30" as="geometry"/>
                </mxCell>
                <mxCell id="60" value="&lt;span&gt;True&lt;/span&gt;" style="text;html=1;strokeColor=none;fillColor=none;align=center;verticalAlign=middle;whiteSpace=wrap;rounded=0;fontColor=#009900;fontStyle=0" vertex="1" parent="1">
                    <mxGeometry x="900" y="1330" width="60" height="30" as="geometry"/>
                </mxCell>
                <mxCell id="61" value="&lt;font color=&quot;#ff0000&quot;&gt;False&lt;/font&gt;" style="text;html=1;strokeColor=none;fillColor=none;align=center;verticalAlign=middle;whiteSpace=wrap;rounded=0;fontColor=#009900;" vertex="1" parent="1">
                    <mxGeometry x="680" y="1330" width="60" height="30" as="geometry"/>
                </mxCell>
                <mxCell id="62" value="&lt;span&gt;True&lt;/span&gt;" style="text;html=1;strokeColor=none;fillColor=none;align=center;verticalAlign=middle;whiteSpace=wrap;rounded=0;fontColor=#009900;fontStyle=0" vertex="1" parent="1">
                    <mxGeometry x="740" y="1440" width="60" height="30" as="geometry"/>
                </mxCell>
                <mxCell id="63" value="&lt;font color=&quot;#ff0000&quot;&gt;False&lt;/font&gt;" style="text;html=1;strokeColor=none;fillColor=none;align=center;verticalAlign=middle;whiteSpace=wrap;rounded=0;fontColor=#009900;" vertex="1" parent="1">
                    <mxGeometry x="500" y="1440" width="60" height="30" as="geometry"/>
                </mxCell>
                <mxCell id="64" value="msj = (&quot;Obesidad mórbida (obesidad de grado IV)&quot;)" style="shape=document;whiteSpace=wrap;html=1;boundedLbl=1;fillColor=#e51400;fontColor=#ffffff;strokeColor=#B20000;" vertex="1" parent="1">
                    <mxGeometry x="430" y="1520" width="115" height="80" as="geometry"/>
                </mxCell>
                <mxCell id="65" value="" style="endArrow=none;html=1;fontColor=#FF0000;entryX=0.522;entryY=0.875;entryDx=0;entryDy=0;entryPerimeter=0;" edge="1" parent="1">
                    <mxGeometry width="50" height="50" relative="1" as="geometry">
                        <mxPoint x="487" y="1720" as="sourcePoint"/>
                        <mxPoint x="487.03" y="1590" as="targetPoint"/>
                    </mxGeometry>
                </mxCell>
                <mxCell id="66" value="" style="endArrow=none;html=1;fontColor=#FF0000;" edge="1" parent="1">
                    <mxGeometry width="50" height="50" relative="1" as="geometry">
                        <mxPoint x="490" y="1720" as="sourcePoint"/>
                        <mxPoint x="2020" y="1720" as="targetPoint"/>
                    </mxGeometry>
                </mxCell>
                <mxCell id="67" value="" style="endArrow=classic;html=1;fontColor=#FF0000;" edge="1" parent="1">
                    <mxGeometry width="50" height="50" relative="1" as="geometry">
                        <mxPoint x="1360" y="1720" as="sourcePoint"/>
                        <mxPoint x="1360" y="1840" as="targetPoint"/>
                    </mxGeometry>
                </mxCell>
                <mxCell id="68" value="&lt;font color=&quot;#ffffff&quot;&gt;Fin&lt;br&gt;&lt;/font&gt;" style="ellipse;whiteSpace=wrap;html=1;fontColor=#ffffff;fillColor=#6d8764;strokeColor=#3A5431;" vertex="1" parent="1">
                    <mxGeometry x="1300" y="1840" width="120" height="80" as="geometry"/>
                </mxCell>
            </root>
        </mxGraphModel>
    </diagram>
</mxfile>